<?xml version="1.0" encoding="UTF-8"?>
<svg id="Ebene_1" preserveAspectRatio="none" data-name="Ebene 1" xmlns="http://www.w3.org/2000/svg" version="1.1" viewBox="0 0 992.1 992.1">
  <defs>
    <style>
      .cls-1 {
        fill: #000;
        stroke-width: 0px;
      }
    </style>
  </defs>
  <path class="cls-1" d="M495.5,165c42.7-81.1,97.7-136.1,172.3-156.7,116.8-32.2,231.8,32.7,291.5,164.7,55.5,122.7,40.1,283.7-43.6,385.4-51.5,62.6-110.7,115.2-166.6,172.1-85,86.5-170.1,172.9-257.4,261.6-27.8-31.6-58.2-69.6-91.5-103.1-92.2-92.7-186-182.9-278.5-275.1-55.2-55-100.3-119.2-115.6-209.2C-20.5,248,41.4,92.1,155.6,29.4c118.2-64.9,250.4-19.7,326.1,111.5,3.9,6.8,7.8,13.6,13.8,24.2Z"/>
</svg>