<?xml version="1.0" encoding="UTF-8"?>
<svg id="Ebene_1" preserveAspectRatio="none"  data-name="Ebene 1" xmlns="http://www.w3.org/2000/svg" version="1.1" viewBox="0 0 992.1 992.1">
  <defs>
    <style>
      .cls-1 {
        fill: #000;
        stroke-width: 0px;
      }
    </style>
  </defs>
  <polygon class="cls-1" points="994.2 496 820.1 547.4 969.8 650 788.4 645 899.1 788.9 728.1 728.1 788.9 899.1 645 788.4 650 969.8 547.4 820.1 496 994.2 444.7 820.1 342.1 969.8 347.1 788.4 203.2 899.1 264 728.1 93 788.9 203.7 645 22.3 650 172 547.4 -2.1 496 172 444.7 22.3 342.1 203.7 347.1 93 203.2 264 264 203.2 93 347.1 203.7 342.1 22.3 444.7 172 496 -2.1 547.4 172 650 22.3 645 203.7 788.9 93 728.1 264 899.1 203.2 788.4 347.1 969.8 342.1 820.1 444.7 994.2 496"/>
</svg>