<?xml version="1.0" encoding="UTF-8"?>
<svg id="Ebene_1" data-name="Ebene 1" xmlns="http://www.w3.org/2000/svg" version="1.1" viewBox="0 0 992.1 992.1">
  <defs>
    <style>
      .cls-1 {
        fill: #f6e81d;
        stroke-width: 0px;
      }
    </style>
  </defs>
  <polygon class="cls-1" points="496.1 0 545.3 236 676 33.8 637 271.7 831.7 130.6 709.8 338.3 942 277.3 753.6 426.7 992.1 454.2 762.7 525.1 975.2 637.2 735.8 620.2 893.6 801.8 676.5 699.1 758.3 925.7 592.8 751.1 587.6 992.1 496.1 769.3 404.5 992.1 399.3 751.1 233.8 925.7 315.7 699.1 98.5 801.8 256.3 620.2 16.9 637.2 229.4 525.1 0 454.2 238.5 426.7 50.1 277.3 282.4 338.3 160.4 130.6 355.1 271.7 316.1 33.8 446.9 236 496.1 0"/>
</svg>